<svg xmlns="http://www.w3.org/2000/svg" viewBox="0 0 800 450" role="img" aria-label="Real-Time Hand Gesture Recognition">
  <defs>
    <linearGradient id="g" x1="0" y1="0" x2="1" y2="1">
      <stop offset="0" stop-color="#6d28d9"/>
      <stop offset="0.55" stop-color="#7c3aed"/>
      <stop offset="1" stop-color="#db2777"/>
    </linearGradient>
    <pattern id="dots" width="26" height="26" patternUnits="userSpaceOnUse">
      <circle cx="2" cy="2" r="1.4" fill="#ffffff" fill-opacity="0.16"/>
    </pattern>
    <linearGradient id="shade" x1="0" y1="1" x2="0" y2="0">
      <stop offset="0" stop-color="#000000" stop-opacity="0.38"/>
      <stop offset="0.6" stop-color="#000000" stop-opacity="0"/>
    </linearGradient>
  </defs>
  <rect width="800" height="450" fill="url(#g)"/>
  <rect width="800" height="450" fill="url(#dots)"/>
  <g stroke="#ffffff" stroke-width="2" opacity="0.30"><circle cx="540" cy="120" r="9" fill="#ffffff" fill-opacity="0.25"/><circle cx="540" cy="200" r="9" fill="#ffffff" fill-opacity="0.25"/><circle cx="540" cy="280" r="9" fill="#ffffff" fill-opacity="0.25"/><circle cx="540" cy="360" r="9" fill="#ffffff" fill-opacity="0.25"/><circle cx="620" cy="150" r="9" fill="#ffffff" fill-opacity="0.25"/><circle cx="620" cy="250" r="9" fill="#ffffff" fill-opacity="0.25"/><circle cx="620" cy="350" r="9" fill="#ffffff" fill-opacity="0.25"/><circle cx="700" cy="180" r="9" fill="#ffffff" fill-opacity="0.25"/><circle cx="700" cy="300" r="9" fill="#ffffff" fill-opacity="0.25"/><line x1="540" y1="120" x2="620" y2="150"/><line x1="540" y1="120" x2="620" y2="250"/><line x1="540" y1="120" x2="620" y2="350"/><line x1="540" y1="200" x2="620" y2="150"/><line x1="540" y1="200" x2="620" y2="250"/><line x1="540" y1="200" x2="620" y2="350"/><line x1="540" y1="280" x2="620" y2="150"/><line x1="540" y1="280" x2="620" y2="250"/><line x1="540" y1="280" x2="620" y2="350"/><line x1="540" y1="360" x2="620" y2="150"/><line x1="540" y1="360" x2="620" y2="250"/><line x1="540" y1="360" x2="620" y2="350"/><line x1="620" y1="150" x2="700" y2="180"/><line x1="620" y1="150" x2="700" y2="300"/><line x1="620" y1="250" x2="700" y2="180"/><line x1="620" y1="250" x2="700" y2="300"/><line x1="620" y1="350" x2="700" y2="180"/><line x1="620" y1="350" x2="700" y2="300"/></g>
  <rect width="800" height="450" fill="url(#shade)"/>
  <g font-family="ui-monospace, 'SFMono-Regular', Menlo, monospace">
    <rect x="56" y="56" rx="13" ry="13" height="30" width="172" fill="#ffffff" fill-opacity="0.16" stroke="#ffffff" stroke-opacity="0.5"/>
    <text x="74" y="76" fill="#ffffff" font-size="14" letter-spacing="1.5" font-weight="600">DEEP LEARNING</text>
  </g>
  <text x="56" y="320" fill="#ffffff" font-family="'Geist', ui-sans-serif, system-ui, sans-serif" font-size="34" font-weight="700" letter-spacing="-0.5"><tspan x="56" dy="0">Real-Time Hand Gesture</tspan><tspan x="56" dy="40">Recognition</tspan></text>
</svg>