<svg xmlns="http://www.w3.org/2000/svg" viewBox="0 0 100 100" role="img" aria-label="CK — Kim Changhoon">
  <defs><linearGradient id="bg" x1="0" y1="0" x2="1" y2="1"><stop offset="0" stop-color="#4f46e5"/><stop offset="1" stop-color="#4338ca"/></linearGradient></defs>
  <rect width="100" height="100" rx="24" fill="url(#bg)"/>
  <g transform="translate(17.00,65.61) scale(0.4288,-0.4288)" fill="#ffffff"><path d="M67.00 4.00Q61.81 1.31 56.20 -0.05Q50.59 -1.42 44.48 -1.42Q26.27 -1.42 15.62 8.77Q4.98 18.95 4.98 36.38Q4.98 53.86 15.62 64.03Q26.27 74.22 44.48 74.22Q50.59 74.22 56.20 72.84Q61.81 71.48 67.00 68.80L67.00 53.72Q61.77 57.28 56.69 58.94Q51.61 60.59 46.00 60.59Q35.94 60.59 30.17 54.14Q24.42 47.70 24.42 36.38Q24.42 25.09 30.17 18.64Q35.94 12.20 46.00 12.20Q51.61 12.20 56.69 13.86Q61.77 15.53 67.00 19.09L67.00 4.00ZM82.58 72.91L101.37 72.91L101.37 46.30L128.47 72.91L150.29 72.91L115.19 38.38L153.90 0.00L130.37 0.00L101.37 28.72L101.37 0.00L82.58 0.00L82.58 72.91Z"/></g>
</svg>