<svg xmlns="http://www.w3.org/2000/svg" viewBox="0 0 800 450" role="img" aria-label="Multi-Robot Coordination Demo">
  <defs>
    <linearGradient id="g" x1="0" y1="0" x2="1" y2="1">
      <stop offset="0" stop-color="#047857"/>
      <stop offset="0.55" stop-color="#059669"/>
      <stop offset="1" stop-color="#10b981"/>
    </linearGradient>
    <pattern id="dots" width="26" height="26" patternUnits="userSpaceOnUse">
      <circle cx="2" cy="2" r="1.4" fill="#ffffff" fill-opacity="0.16"/>
    </pattern>
    <linearGradient id="shade" x1="0" y1="1" x2="0" y2="0">
      <stop offset="0" stop-color="#000000" stop-opacity="0.38"/>
      <stop offset="0.6" stop-color="#000000" stop-opacity="0"/>
    </linearGradient>
  </defs>
  <rect width="800" height="450" fill="url(#g)"/>
  <rect width="800" height="450" fill="url(#dots)"/>
  <g stroke="#ffffff" stroke-width="2.5" fill="none" opacity="0.35"><line x1="560" y1="150" x2="620" y2="250"/><line x1="680" y1="150" x2="620" y2="250"/><line x1="620" y1="250" x2="560" y2="350"/><line x1="620" y1="250" x2="700" y2="330"/><line x1="560" y1="350" x2="700" y2="330"/><rect x="544" y="134" width="32" height="32" rx="8" fill="#ffffff" fill-opacity="0.18"/><rect x="664" y="134" width="32" height="32" rx="8" fill="#ffffff" fill-opacity="0.18"/><rect x="604" y="234" width="32" height="32" rx="8" fill="#ffffff" fill-opacity="0.18"/><rect x="544" y="334" width="32" height="32" rx="8" fill="#ffffff" fill-opacity="0.18"/><rect x="684" y="314" width="32" height="32" rx="8" fill="#ffffff" fill-opacity="0.18"/></g>
  <rect width="800" height="450" fill="url(#shade)"/>
  <g font-family="ui-monospace, 'SFMono-Regular', Menlo, monospace">
    <rect x="56" y="56" rx="13" ry="13" height="30" width="137" fill="#ffffff" fill-opacity="0.16" stroke="#ffffff" stroke-opacity="0.5"/>
    <text x="74" y="76" fill="#ffffff" font-size="14" letter-spacing="1.5" font-weight="600">ALGORITHM</text>
  </g>
  <text x="56" y="320" fill="#ffffff" font-family="'Geist', ui-sans-serif, system-ui, sans-serif" font-size="34" font-weight="700" letter-spacing="-0.5"><tspan x="56" dy="0">Multi-Robot</tspan><tspan x="56" dy="40">Coordination Demo</tspan></text>
</svg>