<svg xmlns="http://www.w3.org/2000/svg" viewBox="0 0 800 450" role="img" aria-label="Pose Estimation Annotation Tool">
  <defs>
    <linearGradient id="g" x1="0" y1="0" x2="1" y2="1">
      <stop offset="0" stop-color="#0e7490"/>
      <stop offset="0.55" stop-color="#0891b2"/>
      <stop offset="1" stop-color="#0d9488"/>
    </linearGradient>
    <pattern id="dots" width="26" height="26" patternUnits="userSpaceOnUse">
      <circle cx="2" cy="2" r="1.4" fill="#ffffff" fill-opacity="0.16"/>
    </pattern>
    <linearGradient id="shade" x1="0" y1="1" x2="0" y2="0">
      <stop offset="0" stop-color="#000000" stop-opacity="0.38"/>
      <stop offset="0.6" stop-color="#000000" stop-opacity="0"/>
    </linearGradient>
  </defs>
  <rect width="800" height="450" fill="url(#g)"/>
  <rect width="800" height="450" fill="url(#dots)"/>
  <g opacity="0.4"><circle cx="540" cy="330" r="7" fill="#ffffff" fill-opacity="0.5"/><circle cx="575" cy="300" r="7" fill="#ffffff" fill-opacity="0.5"/><circle cx="600" cy="310" r="7" fill="#ffffff" fill-opacity="0.5"/><circle cx="630" cy="260" r="7" fill="#ffffff" fill-opacity="0.5"/><circle cx="660" cy="250" r="7" fill="#ffffff" fill-opacity="0.5"/><circle cx="690" cy="210" r="7" fill="#ffffff" fill-opacity="0.5"/><circle cx="715" cy="200" r="7" fill="#ffffff" fill-opacity="0.5"/><circle cx="620" cy="290" r="7" fill="#ffffff" fill-opacity="0.5"/><circle cx="660" cy="290" r="7" fill="#ffffff" fill-opacity="0.5"/><line x1="525" y1="345" x2="730" y2="185" stroke="#ffffff" stroke-width="3" stroke-dasharray="2 6" opacity="0.8"/></g>
  <rect width="800" height="450" fill="url(#shade)"/>
  <g font-family="ui-monospace, 'SFMono-Regular', Menlo, monospace">
    <rect x="56" y="56" rx="13" ry="13" height="30" width="198" fill="#ffffff" fill-opacity="0.16" stroke="#ffffff" stroke-opacity="0.5"/>
    <text x="74" y="76" fill="#ffffff" font-size="14" letter-spacing="1.5" font-weight="600">MACHINE LEARNING</text>
  </g>
  <text x="56" y="320" fill="#ffffff" font-family="'Geist', ui-sans-serif, system-ui, sans-serif" font-size="34" font-weight="700" letter-spacing="-0.5"><tspan x="56" dy="0">Pose Estimation</tspan><tspan x="56" dy="40">Annotation Tool</tspan></text>
</svg>