<svg xmlns="http://www.w3.org/2000/svg" viewBox="0 0 800 450" role="img" aria-label="Schoolhouse.world certified tutor badge">
  <defs>
    <radialGradient id="glow" cx="50%" cy="44%" r="62%">
      <stop offset="0" stop-color="#F4FCF8"/>
      <stop offset="0.55" stop-color="#E8F8F1"/>
      <stop offset="1" stop-color="#D2E9DD"/>
    </radialGradient>
    <linearGradient id="shade" x1="0" y1="1" x2="0" y2="0">
      <stop offset="0" stop-color="#1f4a39" stop-opacity="0.22"/>
      <stop offset="0.5" stop-color="#1f4a39" stop-opacity="0"/>
    </linearGradient>
    <pattern id="dots" width="26" height="26" patternUnits="userSpaceOnUse">
      <circle cx="2" cy="2" r="1.3" fill="#2b6049" fill-opacity="0.10"/>
    </pattern>
  </defs>
  <rect width="800" height="450" fill="url(#glow)"/>
  <rect width="800" height="450" fill="url(#dots)"/>
  <g transform="translate(199.77,0) scale(0.6881)"><path d="M0 0 C192.06 0 384.12 0 582 0 C582 215.82 582 431.64 582 654 C389.94 654 197.88 654 0 654 C0 438.18 0 222.36 0 0 Z " fill="#264E3C" transform="translate(0,0)"/><path d="M0 0 C45.21 0 90.42 0 137 0 C137.323 68.729 137.323 68.729 137.391 97.412 C137.406 103.977 137.422 110.543 137.439 117.108 C137.442 117.931 137.444 118.754 137.446 119.602 C137.481 132.887 137.544 146.172 137.617 159.456 C137.692 173.09 137.736 186.724 137.753 200.357 C137.764 208.77 137.798 217.183 137.863 225.596 C137.906 231.365 137.918 237.133 137.908 242.902 C137.903 246.231 137.915 249.558 137.954 252.887 C137.993 256.499 137.984 260.107 137.962 263.718 C137.985 264.768 138.009 265.817 138.033 266.899 C137.918 273.909 137.918 273.909 135.225 277.11 C133.065 278.955 133.065 278.955 130.911 280.475 C128.791 282.166 127.975 283.491 127 286 C126.441 295.531 130.548 305.232 133.293 314.184 C133.473 314.786 133.473 314.786 134.383 317.836 C134.717 318.924 135.051 320.013 135.395 321.134 C136 324 136.093 325.328 135 328 C133.384 330.239 131.746 332.368 130 334.5 C129 335.747 128.002 336.994 127.004 338.242 C126.501 338.868 125.999 339.495 125.481 340.14 C123.255 342.936 121.092 345.773 118.938 348.625 C118.225 349.566 117.512 350.507 116.777 351.477 C113.487 356.147 112.236 359.177 113 365 C116.688 372.864 123.484 379.661 128.977 386.328 C129.493 386.969 130.008 387.611 130.54 388.271 C132 390 132 390 134.523 392.359 C136.947 396.693 135.288 400.406 134 405 C133.76 405.936 133.52 406.872 133.273 407.836 C132.524 410.733 131.736 413.616 130.938 416.5 C130.803 416.994 130.803 416.994 130.123 419.492 C128.135 426.729 128.135 426.729 127 429 C126.606 433.094 126.712 435.445 128.625 439.125 C131 442 131 442 134.103 444.241 C136.654 446.344 136.962 446.833 137.738 450.255 C137.733 451.496 137.727 452.738 137.722 454.017 C137.727 454.712 137.732 455.406 137.737 456.121 C137.747 458.442 137.714 460.761 137.681 463.081 C137.679 464.747 137.68 466.413 137.684 468.079 C137.686 472.597 137.65 477.115 137.608 481.633 C137.571 486.356 137.567 491.079 137.56 495.803 C137.542 504.745 137.492 513.687 137.432 522.63 C137.365 532.811 137.332 542.992 137.302 553.174 C137.239 574.116 137.134 595.058 137 616 C137.369 615.814 137.369 615.814 139.235 614.876 C157.173 605.851 175.117 596.838 193.067 587.837 C201.747 583.484 210.425 579.127 219.099 574.762 C226.659 570.957 234.222 567.16 241.789 563.37 C245.796 561.363 249.802 559.353 253.803 557.334 C257.569 555.434 261.339 553.544 265.113 551.661 C266.498 550.968 267.881 550.271 269.262 549.571 C271.147 548.616 273.039 547.673 274.932 546.733 C275.989 546.202 277.047 545.671 278.136 545.124 C281.042 543.984 282.916 543.668 286 544 C287.925 545.13 287.925 545.13 289.742 546.703 C290.079 546.987 290.079 546.987 291.785 548.426 C292.475 549.028 293.164 549.63 293.875 550.25 C307.494 561.964 307.494 561.964 314.922 561.496 C320.633 560.133 325.064 555.789 329.473 552.117 C330.085 551.615 330.698 551.113 331.33 550.595 C332.551 549.587 333.759 548.563 334.952 547.52 C339.263 543.947 339.263 543.947 342.856 544.206 C346.07 545.018 348.685 546.105 351.64 547.601 C352.727 548.146 353.813 548.691 354.933 549.253 C356.098 549.847 357.264 550.442 358.465 551.055 C359.701 551.678 360.938 552.3 362.175 552.922 C365.439 554.565 368.699 556.216 371.958 557.871 C377.109 560.484 382.267 563.083 387.425 565.682 C389.186 566.571 390.946 567.464 392.705 568.358 C399.888 571.99 407.122 575.497 414.393 578.95 C428.804 585.804 443.057 592.971 457.32 600.126 C460.907 601.925 464.496 603.721 468.084 605.518 C475.057 609.009 482.029 612.504 489 616 C488.994 615.128 488.989 614.255 488.983 613.356 C488.851 592.141 488.751 570.927 488.689 549.712 C488.658 539.452 488.616 529.193 488.547 518.934 C488.488 509.993 488.449 501.053 488.435 492.112 C488.428 487.376 488.409 482.642 488.366 477.906 C488.325 473.451 488.312 468.996 488.321 464.541 C488.32 462.904 488.308 461.267 488.285 459.631 C488.255 457.398 488.262 455.168 488.278 452.935 C488.273 451.685 488.267 450.435 488.262 449.147 C489 446 489 446 491.928 443.699 C492.942 443.139 493.955 442.578 495 442 C498.324 438.233 498.348 434.826 498.294 430.022 C497.712 424.044 495.731 418.396 493.938 412.688 C493.165 410.215 492.403 407.74 491.652 405.262 C491.312 404.179 490.972 403.095 490.621 401.979 C489.965 398.832 490.024 397.04 491 394 C492.606 391.703 494.216 389.585 496 387.438 C497 386.201 497.999 384.964 498.996 383.727 C499.499 383.107 500.001 382.487 500.519 381.849 C502.762 379.049 504.918 376.188 507.062 373.312 C507.775 372.36 508.488 371.407 509.223 370.426 C512.562 365.869 513.657 363.726 513 358 C510.074 352.074 505.714 346.978 501.5 341.938 C499.84 339.941 498.187 337.941 496.555 335.921 C495.537 334.663 494.501 333.419 493.445 332.192 C491.089 329.275 490 327.528 490 323.734 C490.33 322.502 490.66 321.27 491 320 C491.214 319.185 491.428 318.369 491.648 317.529 C492.394 314.757 493.19 312.004 494 309.25 C494.273 308.305 494.547 307.36 494.828 306.387 C495.838 302.906 496.854 299.439 498 296 C498.392 291.134 498.624 286.578 496.812 282 C494.762 279.737 492.661 278.471 490 277 C488.802 274.604 488.876 273.135 488.877 270.459 C488.876 269.978 488.876 269.978 488.871 267.544 C488.874 266.48 488.877 265.416 488.88 264.319 C488.879 263.757 488.879 263.757 488.877 260.911 C488.876 257.117 488.881 253.323 488.886 249.529 C488.887 246.819 488.887 244.11 488.886 241.4 C488.886 235.553 488.889 229.706 488.894 223.86 C488.902 215.406 488.905 206.953 488.906 198.499 C488.908 184.785 488.915 171.071 488.925 157.356 C488.934 144.032 488.941 130.707 488.945 117.383 C488.945 116.972 488.945 116.972 488.946 114.895 C488.947 110.777 488.948 106.659 488.95 102.541 C488.96 68.361 488.978 34.18 489 0 C519.69 0 550.38 0 582 0 C582 215.82 582 431.64 582 654 C389.94 654 197.88 654 0 654 C0 438.18 0 222.36 0 0 Z " fill="#E8F8F1" transform="translate(0,0)"/><path d="M0 0 C116.16 0 232.32 0 352 0 C352 90.75 352 181.5 352 275 C347.533 273.511 344.146 272.131 340.125 269.875 C339.642 269.606 339.642 269.606 337.195 268.242 C336.471 267.832 335.746 267.422 335 267 C335 266.34 335 265.68 335 265 C334.257 264.876 333.515 264.752 332.75 264.625 C330.098 264.022 328.272 263.476 326 262 C325.302 260.083 325.302 260.083 325.023 257.738 C324.911 256.873 324.799 256.009 324.684 255.117 C324.582 254.192 324.48 253.266 324.375 252.312 C324.255 251.369 324.135 250.426 324.012 249.455 C323.656 246.638 323.324 243.82 323 241 C322.675 238.186 322.342 235.374 322 232.562 C321.876 231.429 321.752 230.296 321.625 229.129 C320.772 224.861 319.347 221.301 316.188 218.25 C311.605 215.631 306.923 214.721 301.719 214.219 C300.547 214.099 299.375 213.979 298.168 213.855 C297.563 213.797 297.563 213.797 294.5 213.5 C292.093 213.267 289.687 213.027 287.281 212.781 C286.22 212.679 285.158 212.576 284.064 212.471 C276 211.232 276 211.232 273.205 207.789 C272.723 206.886 272.242 205.984 271.746 205.055 C271.474 204.557 271.474 204.557 270.096 202.039 C269.548 200.995 269.001 199.951 268.438 198.875 C267.334 196.83 266.228 194.786 265.121 192.742 C264.594 191.763 264.067 190.783 263.523 189.774 C256.989 177.875 256.989 177.875 251 175 C245.796 174.648 241.636 175.466 236.676 177.004 C236.007 177.206 235.338 177.408 234.649 177.616 C231.816 178.473 228.989 179.352 226.162 180.23 C224.086 180.871 222.006 181.5 219.926 182.129 C218.693 182.511 217.459 182.893 216.189 183.287 C213.149 183.967 211.806 184.204 209 183 C206.761 181.384 204.632 179.746 202.5 178 C201.253 177 200.006 176.002 198.758 175.004 C198.132 174.501 197.505 173.999 196.86 173.481 C194.064 171.255 191.227 169.092 188.375 166.938 C187.434 166.225 186.493 165.512 185.523 164.777 C180.853 161.487 177.823 160.236 172 161 C165.512 164.541 159.819 169.446 154.188 174.188 C152.723 175.411 151.258 176.634 149.793 177.855 C149.476 178.122 149.476 178.122 147.872 179.469 C147.254 179.975 146.636 180.48 146 181 C145.355 181.573 144.71 182.145 144.046 182.735 C142 184 142 184 139.826 183.963 C139.048 183.77 138.27 183.578 137.469 183.379 C136.591 183.169 135.713 182.959 134.809 182.743 C134.345 182.62 134.345 182.62 132 182 C131.063 181.761 130.126 181.523 129.16 181.277 C126.266 180.523 123.382 179.736 120.5 178.938 C119.513 178.669 118.525 178.4 117.508 178.123 C110.271 176.135 110.271 176.135 108 175 C103.982 174.614 101.539 174.741 97.875 176.5 C91.605 181.952 88.116 190.284 84.188 197.5 C83.936 197.959 83.936 197.959 82.666 200.281 C81.442 202.52 80.22 204.759 79 207 C78.34 207 77.68 207 77 207 C76.67 208.32 76.34 209.64 76 211 C74.936 211.136 73.871 211.272 72.775 211.411 C68.813 211.92 64.853 212.443 60.894 212.971 C59.182 213.198 57.471 213.42 55.758 213.637 C53.292 213.952 50.827 214.281 48.363 214.613 C47.602 214.707 46.84 214.801 46.055 214.898 C40.767 215.631 36.985 216.868 33.312 220.812 C30.345 225.759 29.751 230.549 29.527 236.234 C28.269 257.856 28.269 257.856 24.264 263.406 C20.353 266.787 15.98 268.666 11.099 270.248 C8.918 271.03 7.07 272.019 5.082 273.203 C2 275 2 275 0 275 C0 184.25 0 93.5 0 0 Z " fill="#4F997A" transform="translate(137,0)"/><path d="M0 0 C20.462 7.91 38.173 23.016 53.433 38.445 C55.212 40.21 57.072 41.838 59 43.438 C62.35 46.332 65.24 49.409 68.098 52.785 C70.271 55.316 72.54 57.745 74.812 60.188 C86.154 72.679 99.552 88.38 104 105 C104.191 105.682 104.382 106.364 104.578 107.066 C104.931 109.44 104.847 110.745 104 113 C92.356 127.737 71.7 134.515 53.828 136.738 C51 137 51 137 48 137 C48 140.63 48 144.26 48 148 C48.476 147.971 48.476 147.971 50.887 147.824 C60.837 147.466 60.837 147.466 64.043 148.938 C65.375 150.188 65.375 150.188 67 153 C67 154.65 67 156.3 67 158 C50.83 158 34.66 158 18 158 C19 152 19 152 21.312 149.625 C26.039 146.815 31.728 147.766 37 148 C37 144.04 37 140.08 37 136 C35.659 135.938 34.319 135.876 32.938 135.812 C14.824 133.942 0.563 124.545 -12 112 C-12.669 111.343 -13.338 110.685 -14.027 110.008 C-29.723 93.422 -33.663 72.358 -33.305 50.406 C-32.697 33.118 -25.104 15.486 -13 3 C-8.843 -0.572 -5.318 -1.097 0 0 Z " fill="#FBFCFB" transform="translate(276,284)"/><path d="M0 0 C0 55.77 0 111.54 0 169 C-4.702 167.433 -8.908 165.681 -13.293 163.459 C-13.645 163.283 -13.645 163.283 -15.43 162.389 C-17.756 161.222 -20.079 160.051 -22.402 158.879 C-24.042 158.056 -25.683 157.233 -27.323 156.411 C-31.651 154.24 -35.977 152.065 -40.302 149.888 C-47.979 146.026 -55.658 142.17 -63.34 138.316 C-64.166 137.902 -64.993 137.487 -65.844 137.06 C-76.285 131.823 -86.752 126.662 -97.308 121.661 C-106.151 117.471 -114.912 113.12 -123.66 108.735 C-126.319 107.403 -128.98 106.075 -131.641 104.748 C-133.349 103.893 -135.057 103.039 -136.766 102.184 C-137.159 101.987 -137.159 101.987 -139.151 100.994 C-139.515 100.811 -139.515 100.811 -141.353 99.888 C-141.987 99.571 -142.622 99.253 -143.275 98.926 C-145 98 -145 98 -148 96 C-145.952 93.41 -144.971 92.271 -142 91 C-135.507 91.285 -129.289 93.571 -123.145 95.555 C-122.313 95.823 -121.481 96.091 -120.624 96.368 C-118.994 96.902 -117.369 97.452 -115.749 98.017 C-109.895 99.989 -104.396 101.213 -98.375 99.062 C-91.251 92.876 -87.305 83.24 -83 75 C-82.34 75 -81.68 75 -81 75 C-80.897 74.299 -80.794 73.597 -80.688 72.875 C-79.859 69.412 -78.978 66.985 -77 64 C-74.281 63.188 -72.287 62.829 -69.516 62.645 C-68.782 62.571 -68.048 62.498 -67.292 62.423 C-64.946 62.193 -62.599 62.001 -60.25 61.812 C-57.916 61.608 -55.583 61.395 -53.251 61.17 C-51.802 61.032 -50.351 60.906 -48.9 60.796 C-43.058 60.269 -38.237 58.874 -33.688 55.062 C-31.062 50.298 -30.7 45.343 -30 40 C-29.648 37.854 -29.294 35.708 -28.938 33.562 C-28.398 30.286 -27.983 27.292 -28.176 23.969 C-28.26 20.31 -28.11 17.498 -27 14 C-23.18 10.395 -18.735 8.34 -14 6.188 C-12.758 5.577 -11.519 4.962 -10.281 4.342 C-1.451 0 -1.451 0 0 0 Z " fill="#4D9476" transform="translate(489,447)"/><path d="M0 0 C5.278 2.111 10.178 4.582 15.188 7.25 C15.645 7.483 15.645 7.483 17.959 8.66 C18.396 8.894 18.396 8.894 20.605 10.078 C21.401 10.495 22.197 10.912 23.016 11.341 C27.126 14.778 27.28 20.117 27.746 25.176 C27.804 25.755 27.804 25.755 28.096 28.686 C28.322 31.092 28.546 33.498 28.768 35.904 C30.417 52.33 30.417 52.33 34.875 56.938 C39.684 59.342 43.742 60.339 49.129 60.781 C49.465 60.811 49.465 60.811 51.164 60.96 C54.018 61.211 56.873 61.444 59.728 61.677 C61.821 61.851 63.912 62.035 66.004 62.219 C67.25 62.321 68.496 62.424 69.78 62.529 C74.657 63.242 74.657 63.242 77 65 C78.783 67.75 78.783 67.75 80.566 71.215 C80.887 71.826 81.207 72.438 81.537 73.068 C82.556 75.019 83.56 76.978 84.562 78.938 C85.57 80.893 86.581 82.846 87.599 84.796 C88.522 86.567 89.434 88.344 90.346 90.121 C91.754 92.572 92.996 94.085 95 96 C95 96.66 95 97.32 95 98 C102.266 100.836 107.963 100.279 115.324 97.996 C115.993 97.794 116.662 97.592 117.351 97.384 C120.184 96.527 123.011 95.648 125.838 94.77 C127.914 94.129 129.994 93.5 132.074 92.871 C133.307 92.489 134.541 92.107 135.811 91.713 C138.838 91.036 140.215 90.756 143 92 C145.75 94.562 145.75 94.562 148 97 C147.436 97.211 146.872 97.422 146.29 97.64 C138.766 100.543 131.607 104.068 124.412 107.696 C123.074 108.367 121.736 109.038 120.398 109.708 C117.536 111.142 114.676 112.578 111.817 114.016 C107.298 116.289 102.776 118.556 98.254 120.822 C88.667 125.627 79.083 130.438 69.5 135.25 C59.125 140.46 48.749 145.668 38.37 150.868 C33.871 153.123 29.374 155.381 24.879 157.642 C22.092 159.043 19.303 160.441 16.514 161.838 C15.218 162.488 13.922 163.139 12.627 163.792 C10.865 164.68 9.101 165.563 7.336 166.445 C6.842 166.694 6.842 166.694 4.342 167.949 C2 169 2 169 0 169 C0 113.23 0 57.46 0 0 Z " fill="#4D9376" transform="translate(137,447)"/><path d="M0 0 C11.112 9.228 19.214 22.751 21.41 37.105 C22.196 49.567 22.345 62.266 15.41 73.105 C14.878 72.438 14.345 71.77 13.797 71.082 C10.954 67.536 8.09 64.007 5.223 60.48 C4.696 59.832 4.169 59.184 3.627 58.516 C2.508 57.139 1.387 55.763 0.265 54.389 C-1.047 52.774 -2.347 51.151 -3.64 49.521 C-9.193 42.584 -15.158 36.235 -21.465 29.98 C-22.381 29.056 -23.298 28.132 -24.242 27.18 C-33.074 18.373 -42.671 10.702 -52.59 3.168 C-53.326 2.605 -54.062 2.043 -54.82 1.463 C-57.705 -0.736 -60.57 -2.881 -63.59 -4.895 C-63.59 -5.555 -63.59 -6.215 -63.59 -6.895 C-61.862 -7.545 -60.133 -8.19 -58.402 -8.832 C-57.439 -9.192 -56.476 -9.551 -55.484 -9.922 C-36.719 -16.228 -15.644 -11.444 0 0 Z " fill="#FBFBFB" transform="translate(361.58984375,292.89453125)"/><path d="M0 0 C1.289 1.531 1.289 1.531 2.625 3.5 C3.071 4.15 3.517 4.799 3.977 5.469 C4.314 5.974 4.652 6.479 5 7 C4.408 7.727 3.817 8.454 3.207 9.203 C-8.474 24.067 -12.493 39.283 -11 58 C-8.892 73.662 -0.546 86.841 11.34 97 C24.887 107.188 41.366 110.446 57.961 108.336 C70.208 106.316 80.234 100.409 90 93 C93.366 94.443 95.51 96.333 98 99 C83.773 113.139 65.754 119.259 45.962 119.249 C39.29 119.155 33.327 118.192 27 116 C26.029 115.671 25.059 115.343 24.059 115.004 C5.527 108.021 -7.437 94.732 -16.352 77.367 C-22.403 63.371 -24.075 47.714 -20 33 C-19.863 32.221 -19.727 31.443 -19.586 30.641 C-18.123 23.436 -8.892 0 0 0 Z " fill="#29513F" transform="translate(274,292)"/></g>
  <rect width="800" height="450" fill="url(#shade)"/>
</svg>