<svg xmlns="http://www.w3.org/2000/svg" viewBox="0 0 800 450" role="img" aria-label="YWC — Youth Web Coalition">
  <defs>
    <linearGradient id="bg" x1="0" y1="0" x2="1" y2="1">
      <stop offset="0" stop-color="#1a2c52"/><stop offset="0.55" stop-color="#22355d"/><stop offset="1" stop-color="#16243f"/>
    </linearGradient>
    <radialGradient id="glow" cx="0.5" cy="0.42" r="0.7">
      <stop offset="0" stop-color="#3b5aa6" stop-opacity="0.55"/><stop offset="1" stop-color="#3b5aa6" stop-opacity="0"/>
    </radialGradient>
    <pattern id="dots" width="26" height="26" patternUnits="userSpaceOnUse"><circle cx="2" cy="2" r="1.3" fill="#ffffff" fill-opacity="0.10"/></pattern>
    <linearGradient id="shade" x1="0" y1="1" x2="0" y2="0"><stop offset="0" stop-color="#0a1426" stop-opacity="0.35"/><stop offset="0.55" stop-color="#0a1426" stop-opacity="0"/></linearGradient>
  </defs>
  <rect width="800" height="450" fill="url(#bg)"/>
  <rect width="800" height="450" fill="url(#glow)"/>
  <rect width="800" height="450" fill="url(#dots)"/>
  <!-- faint 'coalition' network nodes -->
  <g stroke="#9fb6e8" stroke-opacity="0.25" fill="none" stroke-width="1.5">
    <line x1="120" y1="120" x2="220" y2="180"/><line x1="220" y1="180" x2="160" y2="300"/>
    <line x1="580" y1="150" x2="680" y2="250"/><line x1="680" y1="250" x2="600" y2="340"/>
  </g>
  <g fill="#9fb6e8" fill-opacity="0.35">
    <circle cx="120" cy="120" r="4"/><circle cx="220" cy="180" r="5"/><circle cx="160" cy="300" r="4"/>
    <circle cx="580" cy="150" r="4"/><circle cx="680" cy="250" r="5"/><circle cx="600" cy="340" r="4"/>
  </g>
  <g transform="translate(220.0,166.4) scale(2.1302)"><path d="m1.07 0.68h13.35l12.3 20.34 13.35-20.34h12.79l-20.01 31.94v21.99h-12.23l0.14-21.99-19.69-31.94z" fill="#ffffff"/><path d="m105.7 20.3c3.45-4.42 9.61-8.41 15.21-11.89l2.46-7.52h-12.16l-5.61 19.41h0.1z" fill="#ffffff"/><path d="m159.6 35.61 8.21 7.38c-5.68 8.49-13.05 11.82-22.23 11.82-13.63 0-24.6-9.7-27-24.85l12.66-8.56c-0.86 2.36-1.14 4.51-0.99 6.45 0.68 8.24 7.28 15.34 15.4 15.34 6.53 0 9.18-2.28 13.66-7.79l0.29 0.21z" fill="#ffffff"/><path d="m168 12.62-8.28 6.88c-3.59-5.58-7.63-7.39-13.24-7.39-4.91 0-6.89 1.32-10.48 3.88-10.9 7.63-20.92 12.35-23.92 20.84l-5.75 17.98h-11.49l-10.3-34.65-9.74 34.65h-11.18l-14.29-42.42 6.67-9.35 3.14-1.73 10.09 34.58 10.83-35.07h9.46l10.9 35.73 2.26-6.45c3.9-10.95 12.75-15.44 21.54-21.16 1.84-1.18 2.52-2.77 4.92-4.53 5.13-3.45 10.67-4.55 15.94-4.4 10.83 0 17.64 4.11 22.92 12.61z" fill="#ffffff"/></g>
  <rect width="800" height="450" fill="url(#shade)"/>
</svg>